<svg xmlns="http://www.w3.org/2000/svg" xmlns:xlink="http://www.w3.org/1999/xlink" width="1955" zoomAndPan="magnify" viewBox="0 0 1466.25 488.249999" height="651" preserveAspectRatio="xMidYMid meet" version="1.0"><defs><g/><clipPath id="1ee4cf896a"><path d="M 1336 406 L 1464.003906 406 L 1464.003906 431 L 1336 431 Z M 1336 406 " clip-rule="nonzero"/></clipPath><clipPath id="a74d5ebaf6"><rect x="0" width="402" y="0" height="87"/></clipPath></defs><path fill="#000000" d="M 121.238281 168.816406 C 178.125 143.738281 235.007812 143.738281 291.894531 168.816406 C 281.589844 174.636719 273.527344 181.800781 267.707031 190.308594 C 289.652344 175.53125 310.257812 164.5625 329.519531 157.394531 C 352.136719 148.441406 366.695312 129.40625 373.1875 100.300781 C 377.21875 134.332031 371.0625 160.980469 354.710938 180.234375 C 364.789062 177.546875 372.292969 173.292969 377.21875 167.472656 C 368.261719 189.191406 348.777344 207.4375 318.769531 222.21875 C 283.832031 239.234375 251.46875 259.386719 221.683594 282.671875 C 214.066406 288.046875 209.027344 289.164062 206.566406 286.03125 C 204.101562 289.164062 199.0625 288.046875 191.449219 282.671875 C 161.664062 259.386719 129.300781 239.234375 94.363281 222.21875 C 64.351562 207.4375 44.867188 189.191406 35.910156 167.472656 C 40.835938 173.292969 48.339844 177.546875 58.417969 180.234375 C 42.070312 160.980469 35.910156 134.332031 39.941406 100.300781 C 46.4375 129.40625 60.992188 148.441406 83.613281 157.394531 C 102.875 164.5625 123.476562 175.53125 145.425781 190.308594 C 139.601562 181.800781 131.539062 174.636719 121.238281 168.816406 Z M 121.238281 168.816406 " fill-opacity="1" fill-rule="nonzero"/><path fill="#000000" d="M 60.097656 213.148438 C 50.019531 230.390625 44.980469 249.644531 44.980469 270.917969 C 44.980469 300.472656 54.722656 324.988281 74.207031 344.46875 C 97.050781 367.085938 131.988281 372.90625 179.019531 361.933594 C 149.234375 361.933594 123.925781 354.769531 103.097656 340.4375 C 78.238281 323.421875 65.808594 300.25 65.808594 270.917969 C 65.808594 253.003906 69.839844 237.441406 77.902344 224.230469 Z M 60.097656 213.148438 " fill-opacity="1" fill-rule="nonzero"/><path fill="#000000" d="M 353.03125 213.148438 C 363.109375 230.390625 368.148438 249.644531 368.148438 270.917969 C 368.148438 300.472656 358.40625 324.988281 338.921875 344.46875 C 316.082031 367.085938 281.144531 372.90625 234.113281 361.933594 C 263.898438 361.933594 289.207031 354.769531 310.035156 340.4375 C 334.890625 323.421875 347.320312 300.25 347.320312 270.917969 C 347.320312 253.003906 343.289062 237.441406 335.226562 224.230469 Z M 353.03125 213.148438 " fill-opacity="1" fill-rule="nonzero"/><path fill="#000000" d="M 92.011719 232.964844 C 86.636719 242.367188 83.949219 252.78125 83.949219 264.199219 C 83.949219 282.113281 90.109375 297.226562 102.425781 309.539062 C 116.984375 324.09375 137.8125 325.773438 164.910156 314.578125 C 148.5625 314.578125 135.011719 310.546875 124.261719 302.488281 C 113.0625 294.203125 107.464844 281.441406 107.464844 264.199219 C 107.464844 255.019531 110.152344 246.285156 115.527344 238.003906 Z M 92.011719 232.964844 " fill-opacity="1" fill-rule="nonzero"/><path fill="#000000" d="M 321.121094 232.964844 C 326.496094 242.367188 329.183594 252.78125 329.183594 264.199219 C 329.183594 282.113281 323.023438 297.226562 310.707031 309.539062 C 296.148438 324.09375 275.320312 325.773438 248.222656 314.578125 C 264.570312 314.578125 278.121094 310.546875 288.871094 302.488281 C 300.066406 294.203125 305.667969 281.441406 305.667969 264.199219 C 305.667969 255.019531 302.980469 246.285156 297.605469 238.003906 Z M 321.121094 232.964844 " fill-opacity="1" fill-rule="nonzero"/><path fill="#22c55e" d="M 123.925781 249.421875 C 114.070312 259.273438 113.625 269.910156 122.582031 281.328125 C 132.4375 290.507812 143.296875 291.851562 155.167969 285.359375 C 162.558594 280.878906 164.460938 276.738281 160.878906 272.933594 C 153.488281 266.664062 141.171875 258.824219 123.925781 249.421875 Z M 123.925781 249.421875 " fill-opacity="1" fill-rule="nonzero"/><path fill="#22c55e" d="M 289.207031 249.421875 C 299.058594 259.273438 299.507812 269.910156 290.550781 281.328125 C 280.695312 290.507812 269.832031 291.851562 257.964844 285.359375 C 250.574219 280.878906 248.667969 276.738281 252.253906 272.933594 C 259.644531 266.664062 271.960938 258.824219 289.207031 249.421875 Z M 289.207031 249.421875 " fill-opacity="1" fill-rule="nonzero"/><path fill="#000000" d="M 206.566406 298.121094 C 197.605469 305.0625 190.886719 317.601562 186.410156 335.738281 C 190.886719 356.5625 197.605469 373.464844 206.566406 386.453125 C 215.523438 373.464844 222.242188 356.5625 226.722656 335.738281 C 222.242188 317.601562 215.523438 305.0625 206.566406 298.121094 Z M 206.566406 298.121094 " fill-opacity="1" fill-rule="nonzero"/><g fill="#000000" fill-opacity="1"><g transform="translate(445.121165, 368.771926)"><g><path d="M 15.015625 -191.609375 L 52.890625 -191.609375 L 52.890625 -115.890625 L 112.203125 -191.609375 L 155.078125 -191.609375 L 94.609375 -116.15625 L 157.25 0 L 115.15625 0 L 69.703125 -86.25 L 52.890625 -64.9375 L 52.890625 0 L 15.015625 0 Z M 15.015625 -191.609375 "/></g></g></g><g fill="#6b7280" fill-opacity="1"><g transform="translate(593.673845, 368.771926)"><g><path d="M 137.484375 -93.296875 L 137.484375 0 L 100.125 0 L 100.125 -87.53125 C 100.125 -97.96875 98.644531 -105.429688 95.6875 -109.921875 C 92.738281 -114.410156 87.929688 -116.65625 81.265625 -116.65625 C 74.503906 -116.65625 69.175781 -113.617188 65.28125 -107.546875 C 61.382812 -101.472656 59.4375 -93.046875 59.4375 -82.265625 L 59.4375 0 L 22.078125 0 L 22.078125 -143.75 L 59.4375 -143.75 L 59.4375 -122.1875 C 62.09375 -130.132812 66.628906 -136.289062 73.046875 -140.65625 C 79.460938 -145.019531 87.207031 -147.203125 96.28125 -147.203125 C 109.882812 -147.203125 120.148438 -142.6875 127.078125 -133.65625 C 134.015625 -124.632812 137.484375 -111.179688 137.484375 -93.296875 Z M 137.484375 -93.296875 "/></g></g></g><g fill="#6b7280" fill-opacity="1"><g transform="translate(742.21668, 368.771926)"><g><path d="M 20.546875 -50.1875 L 20.546875 -143.75 L 58.15625 -143.75 L 58.15625 -55.953125 C 58.15625 -45.597656 59.609375 -38.195312 62.515625 -33.75 C 65.421875 -29.300781 70.253906 -27.078125 77.015625 -27.078125 C 83.785156 -27.078125 89.070312 -30.070312 92.875 -36.0625 C 96.6875 -42.050781 98.59375 -50.4375 98.59375 -61.21875 L 98.59375 -143.75 L 136.203125 -143.75 L 136.203125 0 L 98.59375 0 L 98.59375 -21.3125 C 95.9375 -13.351562 91.421875 -7.191406 85.046875 -2.828125 C 78.671875 1.535156 70.988281 3.71875 62 3.71875 C 48.3125 3.71875 37.976562 -0.8125 31 -9.875 C 24.03125 -18.945312 20.546875 -32.382812 20.546875 -50.1875 Z M 20.546875 -50.1875 "/></g></g></g><g fill="#6b7280" fill-opacity="1"><g transform="translate(890.759515, 368.771926)"><g><path d="M 147.75 -104.078125 C 143.644531 -107.847656 138.832031 -110.671875 133.3125 -112.546875 C 127.789062 -114.429688 121.738281 -115.375 115.15625 -115.375 C 107.195312 -115.375 100.242188 -113.984375 94.296875 -111.203125 C 88.347656 -108.421875 83.742188 -104.378906 80.484375 -99.078125 C 78.429688 -95.828125 77 -91.890625 76.1875 -87.265625 C 75.375 -82.648438 74.96875 -75.632812 74.96875 -66.21875 L 74.96875 0 L 37.359375 0 L 37.359375 -143.75 L 74.96875 -143.75 L 74.96875 -121.40625 C 78.644531 -129.625 84.289062 -135.976562 91.90625 -140.46875 C 99.53125 -144.957031 108.429688 -147.203125 118.609375 -147.203125 C 123.742188 -147.203125 128.769531 -146.582031 133.6875 -145.34375 C 138.613281 -144.101562 143.300781 -142.285156 147.75 -139.890625 Z M 147.75 -104.078125 "/></g></g></g><g fill="#6b7280" fill-opacity="1"><g transform="translate(1039.302372, 368.771926)"><g><path d="M 101.546875 -123.34375 L 101.546875 -199.703125 L 139.03125 -199.703125 L 139.03125 0 L 101.546875 0 L 101.546875 -21.3125 C 97.523438 -13.007812 92.320312 -6.757812 85.9375 -2.5625 C 79.5625 1.625 72.054688 3.71875 63.421875 3.71875 C 46.984375 3.71875 34.226562 -2.867188 25.15625 -16.046875 C 16.082031 -29.222656 11.546875 -47.789062 11.546875 -71.75 C 11.546875 -96.039062 16.144531 -114.6875 25.34375 -127.6875 C 34.550781 -140.695312 47.671875 -147.203125 64.703125 -147.203125 C 72.398438 -147.203125 79.304688 -145.210938 85.421875 -141.234375 C 91.546875 -137.253906 96.921875 -131.289062 101.546875 -123.34375 Z M 49.171875 -71.484375 C 49.171875 -57.617188 51.476562 -46.75 56.09375 -38.875 C 60.71875 -31.007812 67.09375 -27.078125 75.21875 -27.078125 C 83.351562 -27.078125 89.773438 -31.007812 94.484375 -38.875 C 99.191406 -46.75 101.546875 -57.617188 101.546875 -71.484375 C 101.546875 -85.347656 99.191406 -96.210938 94.484375 -104.078125 C 89.773438 -111.953125 83.351562 -115.890625 75.21875 -115.890625 C 67.09375 -115.890625 60.71875 -111.953125 56.09375 -104.078125 C 51.476562 -96.210938 49.171875 -85.347656 49.171875 -71.484375 Z M 49.171875 -71.484375 "/></g></g></g><g fill="#6b7280" fill-opacity="1"><g transform="translate(1187.845184, 368.771926)"><g><path d="M 23.875 -143.75 L 138.765625 -143.75 L 138.765625 -114.359375 L 63.15625 -28.109375 L 138.765625 -28.109375 L 138.765625 0 L 20.796875 0 L 20.796875 -29.390625 L 96.53125 -115.640625 L 23.875 -115.640625 Z M 23.875 -143.75 "/></g></g></g><g clip-path="url(#1ee4cf896a)"><g fill="#22c55e" fill-opacity="1"><g transform="translate(1336.39049, 368.771926)"><g><path d="M 158.28125 37.609375 L 158.28125 61.984375 L 0 61.984375 L 0 37.609375 Z M 158.28125 37.609375 "/></g></g></g></g><g transform="matrix(1, 0, 0, 1, 457, 70)"><g clip-path="url(#a74d5ebaf6)"><g fill="#000000" fill-opacity="1"><g transform="translate(1.029822, 67.553241)"><g><path d="M 20.375 -45.75 C 26.269531 -45.75 30.570312 -44.476562 33.28125 -41.9375 C 36 -39.40625 37.359375 -35.914062 37.359375 -31.46875 C 37.359375 -29.46875 37.054688 -27.554688 36.453125 -25.734375 C 35.847656 -23.910156 34.859375 -22.285156 33.484375 -20.859375 C 32.117188 -19.441406 30.300781 -18.320312 28.03125 -17.5 C 25.757812 -16.675781 22.957031 -16.265625 19.625 -16.265625 L 15.453125 -16.265625 L 15.453125 0 L 5.75 0 L 5.75 -45.75 Z M 19.875 -37.796875 L 15.453125 -37.796875 L 15.453125 -24.21875 L 18.640625 -24.21875 C 20.460938 -24.21875 22.039062 -24.457031 23.375 -24.9375 C 24.707031 -25.414062 25.738281 -26.164062 26.46875 -27.1875 C 27.195312 -28.207031 27.5625 -29.519531 27.5625 -31.125 C 27.5625 -33.382812 26.9375 -35.0625 25.6875 -36.15625 C 24.4375 -37.25 22.5 -37.796875 19.875 -37.796875 Z M 19.875 -37.796875 "/></g></g></g><g fill="#000000" fill-opacity="1"><g transform="translate(42.829236, 67.553241)"><g><path d="M 36.796875 -17.546875 C 36.796875 -14.628906 36.40625 -12.046875 35.625 -9.796875 C 34.84375 -7.546875 33.703125 -5.640625 32.203125 -4.078125 C 30.710938 -2.523438 28.921875 -1.351562 26.828125 -0.5625 C 24.734375 0.226562 22.375 0.625 19.75 0.625 C 17.28125 0.625 15.019531 0.226562 12.96875 -0.5625 C 10.914062 -1.351562 9.128906 -2.523438 7.609375 -4.078125 C 6.097656 -5.640625 4.929688 -7.546875 4.109375 -9.796875 C 3.285156 -12.046875 2.875 -14.628906 2.875 -17.546875 C 2.875 -21.429688 3.5625 -24.71875 4.9375 -27.40625 C 6.320312 -30.09375 8.285156 -32.132812 10.828125 -33.53125 C 13.367188 -34.9375 16.40625 -35.640625 19.9375 -35.640625 C 23.207031 -35.640625 26.109375 -34.9375 28.640625 -33.53125 C 31.179688 -32.132812 33.175781 -30.09375 34.625 -27.40625 C 36.070312 -24.71875 36.796875 -21.429688 36.796875 -17.546875 Z M 12.609375 -17.546875 C 12.609375 -15.253906 12.859375 -13.328125 13.359375 -11.765625 C 13.859375 -10.203125 14.640625 -9.023438 15.703125 -8.234375 C 16.765625 -7.441406 18.15625 -7.046875 19.875 -7.046875 C 21.5625 -7.046875 22.929688 -7.441406 23.984375 -8.234375 C 25.035156 -9.023438 25.804688 -10.203125 26.296875 -11.765625 C 26.785156 -13.328125 27.03125 -15.253906 27.03125 -17.546875 C 27.03125 -19.867188 26.785156 -21.796875 26.296875 -23.328125 C 25.804688 -24.859375 25.03125 -26.007812 23.96875 -26.78125 C 22.90625 -27.550781 21.519531 -27.9375 19.8125 -27.9375 C 17.28125 -27.9375 15.445312 -27.070312 14.3125 -25.34375 C 13.175781 -23.613281 12.609375 -21.015625 12.609375 -17.546875 Z M 12.609375 -17.546875 "/></g></g></g><g fill="#000000" fill-opacity="1"><g transform="translate(84.066009, 67.553241)"><g><path d="M 33.765625 0 L 31.0625 -12.234375 C 30.914062 -12.960938 30.675781 -14.039062 30.34375 -15.46875 C 30.007812 -16.894531 29.648438 -18.425781 29.265625 -20.0625 C 28.878906 -21.707031 28.523438 -23.226562 28.203125 -24.625 C 27.878906 -26.019531 27.644531 -27.039062 27.5 -27.6875 L 27.21875 -27.6875 C 27.070312 -27.039062 26.84375 -26.019531 26.53125 -24.625 C 26.21875 -23.226562 25.867188 -21.703125 25.484375 -20.046875 C 25.097656 -18.398438 24.738281 -16.851562 24.40625 -15.40625 C 24.070312 -13.957031 23.820312 -12.859375 23.65625 -12.109375 L 20.84375 0 L 10.578125 0 L 0.625 -34.984375 L 10.140625 -34.984375 L 14.171875 -19.5 C 14.441406 -18.40625 14.703125 -17.113281 14.953125 -15.625 C 15.203125 -14.132812 15.425781 -12.695312 15.625 -11.3125 C 15.820312 -9.925781 15.972656 -8.828125 16.078125 -8.015625 L 16.328125 -8.015625 C 16.367188 -8.617188 16.457031 -9.421875 16.59375 -10.421875 C 16.726562 -11.421875 16.882812 -12.457031 17.0625 -13.53125 C 17.238281 -14.601562 17.40625 -15.570312 17.5625 -16.4375 C 17.71875 -17.300781 17.835938 -17.890625 17.921875 -18.203125 L 22.25 -34.984375 L 32.765625 -34.984375 L 36.859375 -18.203125 C 37.003906 -17.597656 37.195312 -16.640625 37.4375 -15.328125 C 37.675781 -14.015625 37.890625 -12.664062 38.078125 -11.28125 C 38.265625 -9.894531 38.367188 -8.804688 38.390625 -8.015625 L 38.640625 -8.015625 C 38.722656 -8.722656 38.867188 -9.773438 39.078125 -11.171875 C 39.285156 -12.566406 39.53125 -14.03125 39.8125 -15.5625 C 40.09375 -17.09375 40.378906 -18.40625 40.671875 -19.5 L 44.875 -34.984375 L 54.21875 -34.984375 L 44.140625 0 Z M 33.765625 0 "/></g></g></g><g fill="#000000" fill-opacity="1"><g transform="translate(140.462826, 67.553241)"><g><path d="M 19.4375 -35.640625 C 22.664062 -35.640625 25.445312 -35.015625 27.78125 -33.765625 C 30.113281 -32.523438 31.914062 -30.726562 33.1875 -28.375 C 34.46875 -26.019531 35.109375 -23.144531 35.109375 -19.75 L 35.109375 -15.109375 L 12.546875 -15.109375 C 12.648438 -12.421875 13.457031 -10.3125 14.96875 -8.78125 C 16.476562 -7.25 18.582031 -6.484375 21.28125 -6.484375 C 23.507812 -6.484375 25.550781 -6.710938 27.40625 -7.171875 C 29.257812 -7.628906 31.171875 -8.316406 33.140625 -9.234375 L 33.140625 -1.84375 C 31.398438 -0.988281 29.585938 -0.363281 27.703125 0.03125 C 25.816406 0.425781 23.53125 0.625 20.84375 0.625 C 17.332031 0.625 14.226562 -0.0195312 11.53125 -1.3125 C 8.832031 -2.601562 6.710938 -4.570312 5.171875 -7.21875 C 3.640625 -9.875 2.875 -13.210938 2.875 -17.234375 C 2.875 -21.328125 3.566406 -24.734375 4.953125 -27.453125 C 6.347656 -30.171875 8.285156 -32.210938 10.765625 -33.578125 C 13.242188 -34.953125 16.132812 -35.640625 19.4375 -35.640625 Z M 19.5 -28.84375 C 17.632812 -28.84375 16.09375 -28.25 14.875 -27.0625 C 13.65625 -25.875 12.953125 -24.007812 12.765625 -21.46875 L 26.15625 -21.46875 C 26.132812 -22.882812 25.878906 -24.144531 25.390625 -25.25 C 24.898438 -26.351562 24.171875 -27.226562 23.203125 -27.875 C 22.234375 -28.519531 21 -28.84375 19.5 -28.84375 Z M 19.5 -28.84375 "/></g></g></g><g fill="#000000" fill-opacity="1"><g transform="translate(179.886645, 67.553241)"><g><path d="M 24.53125 -35.640625 C 25.007812 -35.640625 25.566406 -35.613281 26.203125 -35.5625 C 26.835938 -35.507812 27.351562 -35.441406 27.75 -35.359375 L 27.03125 -26.40625 C 26.71875 -26.507812 26.273438 -26.585938 25.703125 -26.640625 C 25.128906 -26.691406 24.632812 -26.71875 24.21875 -26.71875 C 22.988281 -26.71875 21.789062 -26.5625 20.625 -26.25 C 19.46875 -25.9375 18.429688 -25.429688 17.515625 -24.734375 C 16.597656 -24.035156 15.875 -23.117188 15.34375 -21.984375 C 14.8125 -20.847656 14.546875 -19.453125 14.546875 -17.796875 L 14.546875 0 L 5 0 L 5 -34.984375 L 12.234375 -34.984375 L 13.640625 -29.09375 L 14.109375 -29.09375 C 14.796875 -30.28125 15.65625 -31.367188 16.6875 -32.359375 C 17.71875 -33.359375 18.894531 -34.15625 20.21875 -34.75 C 21.550781 -35.34375 22.988281 -35.640625 24.53125 -35.640625 Z M 24.53125 -35.640625 "/></g></g></g><g fill="#000000" fill-opacity="1"><g transform="translate(210.558274, 67.553241)"><g><path d="M 19.4375 -35.640625 C 22.664062 -35.640625 25.445312 -35.015625 27.78125 -33.765625 C 30.113281 -32.523438 31.914062 -30.726562 33.1875 -28.375 C 34.46875 -26.019531 35.109375 -23.144531 35.109375 -19.75 L 35.109375 -15.109375 L 12.546875 -15.109375 C 12.648438 -12.421875 13.457031 -10.3125 14.96875 -8.78125 C 16.476562 -7.25 18.582031 -6.484375 21.28125 -6.484375 C 23.507812 -6.484375 25.550781 -6.710938 27.40625 -7.171875 C 29.257812 -7.628906 31.171875 -8.316406 33.140625 -9.234375 L 33.140625 -1.84375 C 31.398438 -0.988281 29.585938 -0.363281 27.703125 0.03125 C 25.816406 0.425781 23.53125 0.625 20.84375 0.625 C 17.332031 0.625 14.226562 -0.0195312 11.53125 -1.3125 C 8.832031 -2.601562 6.710938 -4.570312 5.171875 -7.21875 C 3.640625 -9.875 2.875 -13.210938 2.875 -17.234375 C 2.875 -21.328125 3.566406 -24.734375 4.953125 -27.453125 C 6.347656 -30.171875 8.285156 -32.210938 10.765625 -33.578125 C 13.242188 -34.953125 16.132812 -35.640625 19.4375 -35.640625 Z M 19.5 -28.84375 C 17.632812 -28.84375 16.09375 -28.25 14.875 -27.0625 C 13.65625 -25.875 12.953125 -24.007812 12.765625 -21.46875 L 26.15625 -21.46875 C 26.132812 -22.882812 25.878906 -24.144531 25.390625 -25.25 C 24.898438 -26.351562 24.171875 -27.226562 23.203125 -27.875 C 22.234375 -28.519531 21 -28.84375 19.5 -28.84375 Z M 19.5 -28.84375 "/></g></g></g><g fill="#000000" fill-opacity="1"><g transform="translate(249.982093, 67.553241)"><g><path d="M 16.078125 0.625 C 12.179688 0.625 9.003906 -0.898438 6.546875 -3.953125 C 4.097656 -7.015625 2.875 -11.503906 2.875 -17.421875 C 2.875 -23.410156 4.113281 -27.941406 6.59375 -31.015625 C 9.082031 -34.097656 12.328125 -35.640625 16.328125 -35.640625 C 17.992188 -35.640625 19.460938 -35.410156 20.734375 -34.953125 C 22.015625 -34.492188 23.117188 -33.875 24.046875 -33.09375 C 24.972656 -32.320312 25.757812 -31.457031 26.40625 -30.5 L 26.71875 -30.5 C 26.59375 -31.164062 26.441406 -32.148438 26.265625 -33.453125 C 26.085938 -34.765625 26 -36.109375 26 -37.484375 L 26 -48.6875 L 35.578125 -48.6875 L 35.578125 0 L 28.25 0 L 26.40625 -4.53125 L 26 -4.53125 C 25.394531 -3.570312 24.640625 -2.703125 23.734375 -1.921875 C 22.828125 -1.140625 21.742188 -0.519531 20.484375 -0.0625 C 19.234375 0.394531 17.765625 0.625 16.078125 0.625 Z M 19.4375 -6.984375 C 22.039062 -6.984375 23.878906 -7.757812 24.953125 -9.3125 C 26.023438 -10.863281 26.59375 -13.203125 26.65625 -16.328125 L 26.65625 -17.359375 C 26.65625 -20.765625 26.132812 -23.367188 25.09375 -25.171875 C 24.050781 -26.972656 22.113281 -27.875 19.28125 -27.875 C 17.164062 -27.875 15.515625 -26.96875 14.328125 -25.15625 C 13.140625 -23.34375 12.546875 -20.722656 12.546875 -17.296875 C 12.546875 -13.878906 13.144531 -11.304688 14.34375 -9.578125 C 15.539062 -7.847656 17.238281 -6.984375 19.4375 -6.984375 Z M 19.4375 -6.984375 "/></g></g></g><g fill="#000000" fill-opacity="1"><g transform="translate(292.094085, 67.553241)"><g/></g></g><g fill="#000000" fill-opacity="1"><g transform="translate(310.325101, 67.553241)"><g><path d="M 5.75 -45.75 L 20 -45.75 C 26.082031 -45.75 30.6875 -44.890625 33.8125 -43.171875 C 36.945312 -41.460938 38.515625 -38.460938 38.515625 -34.171875 C 38.515625 -32.429688 38.238281 -30.863281 37.6875 -29.46875 C 37.132812 -28.070312 36.335938 -26.925781 35.296875 -26.03125 C 34.253906 -25.132812 32.976562 -24.550781 31.46875 -24.28125 L 31.46875 -23.96875 C 33 -23.65625 34.378906 -23.117188 35.609375 -22.359375 C 36.835938 -21.597656 37.820312 -20.488281 38.5625 -19.03125 C 39.300781 -17.582031 39.671875 -15.660156 39.671875 -13.265625 C 39.671875 -10.492188 38.992188 -8.113281 37.640625 -6.125 C 36.285156 -4.144531 34.347656 -2.628906 31.828125 -1.578125 C 29.316406 -0.523438 26.332031 0 22.875 0 L 5.75 0 Z M 15.453125 -27.625 L 21.09375 -27.625 C 23.90625 -27.625 25.851562 -28.066406 26.9375 -28.953125 C 28.019531 -29.835938 28.5625 -31.148438 28.5625 -32.890625 C 28.5625 -34.640625 27.921875 -35.894531 26.640625 -36.65625 C 25.359375 -37.414062 23.332031 -37.796875 20.5625 -37.796875 L 15.453125 -37.796875 Z M 15.453125 -19.9375 L 15.453125 -8.015625 L 21.78125 -8.015625 C 24.695312 -8.015625 26.726562 -8.578125 27.875 -9.703125 C 29.019531 -10.828125 29.59375 -12.335938 29.59375 -14.234375 C 29.59375 -15.359375 29.34375 -16.347656 28.84375 -17.203125 C 28.34375 -18.054688 27.503906 -18.722656 26.328125 -19.203125 C 25.148438 -19.691406 23.53125 -19.9375 21.46875 -19.9375 Z M 15.453125 -19.9375 "/></g></g></g><g fill="#000000" fill-opacity="1"><g transform="translate(354.937719, 67.553241)"><g><path d="M 0 -34.984375 L 10.453125 -34.984375 L 17.046875 -15.296875 C 17.253906 -14.671875 17.429688 -14.035156 17.578125 -13.390625 C 17.722656 -12.742188 17.847656 -12.078125 17.953125 -11.390625 C 18.054688 -10.703125 18.140625 -9.984375 18.203125 -9.234375 L 18.390625 -9.234375 C 18.515625 -10.359375 18.6875 -11.410156 18.90625 -12.390625 C 19.132812 -13.367188 19.414062 -14.335938 19.75 -15.296875 L 26.21875 -34.984375 L 36.453125 -34.984375 L 21.65625 4.46875 C 20.757812 6.894531 19.585938 8.914062 18.140625 10.53125 C 16.703125 12.144531 15.050781 13.359375 13.1875 14.171875 C 11.320312 14.984375 9.273438 15.390625 7.046875 15.390625 C 5.953125 15.390625 5.007812 15.332031 4.21875 15.21875 C 3.425781 15.101562 2.75 14.984375 2.1875 14.859375 L 2.1875 7.296875 C 2.625 7.398438 3.175781 7.492188 3.84375 7.578125 C 4.507812 7.660156 5.207031 7.703125 5.9375 7.703125 C 7.28125 7.703125 8.429688 7.414062 9.390625 6.84375 C 10.347656 6.28125 11.148438 5.523438 11.796875 4.578125 C 12.441406 3.628906 12.953125 2.59375 13.328125 1.46875 L 13.890625 -0.25 Z M 0 -34.984375 "/></g></g></g></g></g></svg>