<svg xmlns="http://www.w3.org/2000/svg" xmlns:xlink="http://www.w3.org/1999/xlink" width="1466" zoomAndPan="magnify" viewBox="0 0 1099.5 365.999986" height="488" preserveAspectRatio="xMidYMid meet" version="1.0"><defs><clipPath id="77fb24b565"><path d="M 1001.363281 304.324219 L 1097.304688 304.324219 L 1097.304688 323 L 1001.363281 323 Z M 1001.363281 304.324219 " clip-rule="nonzero"/></clipPath></defs><path fill="#ffffff" d="M 90.882812 126.550781 C 133.519531 107.753906 176.152344 107.753906 218.792969 126.550781 C 211.066406 130.914062 205.023438 136.28125 200.664062 142.660156 C 217.109375 131.585938 232.554688 123.363281 246.992188 117.992188 C 263.945312 111.28125 274.855469 97.011719 279.722656 75.199219 C 282.742188 100.703125 278.128906 120.679688 265.871094 135.109375 C 273.425781 133.09375 279.050781 129.90625 282.742188 125.542969 C 276.03125 141.824219 261.425781 155.5 238.933594 166.578125 C 212.75 179.332031 188.492188 194.433594 166.167969 211.886719 C 160.457031 215.917969 156.679688 216.753906 154.835938 214.40625 C 152.988281 216.753906 149.210938 215.917969 143.507812 211.886719 C 121.179688 194.433594 96.925781 179.332031 70.738281 166.578125 C 48.246094 155.5 33.640625 141.824219 26.925781 125.542969 C 30.617188 129.90625 36.242188 133.09375 43.796875 135.109375 C 31.542969 120.679688 26.925781 100.703125 29.949219 75.199219 C 34.816406 97.011719 45.726562 111.28125 62.679688 117.992188 C 77.117188 123.363281 92.558594 131.585938 109.011719 142.660156 C 104.644531 136.28125 98.601562 130.914062 90.882812 126.550781 Z M 90.882812 126.550781 " fill-opacity="1" fill-rule="nonzero"/><path fill="#ffffff" d="M 45.054688 159.777344 C 37.503906 172.703125 33.726562 187.132812 33.726562 203.078125 C 33.726562 225.230469 41.027344 243.605469 55.632812 258.207031 C 72.753906 275.15625 98.9375 279.519531 134.191406 271.296875 C 111.867188 271.296875 92.894531 265.925781 77.285156 255.183594 C 58.652344 242.429688 49.335938 225.0625 49.335938 203.078125 C 49.335938 189.652344 52.359375 177.988281 58.402344 168.085938 Z M 45.054688 159.777344 " fill-opacity="1" fill-rule="nonzero"/><path fill="#ffffff" d="M 264.613281 159.777344 C 272.167969 172.703125 275.945312 187.132812 275.945312 203.078125 C 275.945312 225.230469 268.644531 243.605469 254.039062 258.207031 C 236.921875 275.15625 210.734375 279.519531 175.484375 271.296875 C 197.808594 271.296875 216.777344 265.925781 232.386719 255.183594 C 251.015625 242.429688 260.332031 225.0625 260.332031 203.078125 C 260.332031 189.652344 257.3125 177.988281 251.269531 168.085938 Z M 264.613281 159.777344 " fill-opacity="1" fill-rule="nonzero"/><path fill="#ffffff" d="M 68.976562 174.632812 C 64.949219 181.679688 62.933594 189.484375 62.933594 198.042969 C 62.933594 211.46875 67.550781 222.796875 76.78125 232.023438 C 87.695312 242.933594 103.304688 244.191406 123.613281 235.800781 C 111.363281 235.800781 101.207031 232.78125 93.148438 226.738281 C 84.753906 220.53125 80.558594 210.964844 80.558594 198.042969 C 80.558594 191.160156 82.574219 184.613281 86.601562 178.410156 Z M 68.976562 174.632812 " fill-opacity="1" fill-rule="nonzero"/><path fill="#ffffff" d="M 240.695312 174.632812 C 244.726562 181.679688 246.738281 189.484375 246.738281 198.042969 C 246.738281 211.46875 242.121094 222.796875 232.890625 232.023438 C 221.980469 242.933594 206.367188 244.191406 186.058594 235.800781 C 198.3125 235.800781 208.46875 232.78125 216.523438 226.738281 C 224.917969 220.53125 229.113281 210.964844 229.113281 198.042969 C 229.113281 191.160156 227.101562 184.613281 223.070312 178.410156 Z M 240.695312 174.632812 " fill-opacity="1" fill-rule="nonzero"/><path fill="#22c55e" d="M 92.894531 186.964844 C 85.507812 194.351562 85.175781 202.324219 91.890625 210.878906 C 99.277344 217.761719 107.414062 218.769531 116.3125 213.902344 C 121.851562 210.542969 123.277344 207.441406 120.59375 204.589844 C 115.054688 199.890625 105.824219 194.011719 92.894531 186.964844 Z M 92.894531 186.964844 " fill-opacity="1" fill-rule="nonzero"/><path fill="#22c55e" d="M 216.777344 186.964844 C 224.160156 194.351562 224.496094 202.324219 217.785156 210.878906 C 210.398438 217.761719 202.253906 218.769531 193.359375 213.902344 C 187.820312 210.542969 186.390625 207.441406 189.078125 204.589844 C 194.621094 199.890625 203.851562 194.011719 216.777344 186.964844 Z M 216.777344 186.964844 " fill-opacity="1" fill-rule="nonzero"/><path fill="#ffffff" d="M 154.835938 223.46875 C 148.121094 228.667969 143.085938 238.066406 139.730469 251.660156 C 143.085938 267.269531 148.121094 279.9375 154.835938 289.671875 C 161.550781 279.9375 166.585938 267.269531 169.945312 251.660156 C 166.585938 238.066406 161.550781 228.667969 154.835938 223.46875 Z M 154.835938 223.46875 " fill-opacity="1" fill-rule="nonzero"/><path fill="#ffffff" d="M 344.890625 132.808594 L 373.277344 132.808594 L 373.277344 189.558594 L 417.734375 132.808594 L 449.871094 132.808594 L 404.546875 189.359375 L 451.5 276.421875 L 419.949219 276.421875 L 385.878906 211.773438 L 373.277344 227.75 L 373.277344 276.421875 L 344.890625 276.421875 Z M 344.890625 132.808594 " fill-opacity="1" fill-rule="nonzero"/><path fill="#6b7280" d="M 548.027344 206.492188 L 548.027344 276.421875 L 520.023438 276.421875 L 520.023438 210.816406 C 520.023438 202.992188 518.914062 197.398438 516.699219 194.03125 C 514.488281 190.667969 510.882812 188.984375 505.890625 188.984375 C 500.820312 188.984375 496.828125 191.261719 493.910156 195.8125 C 490.988281 200.367188 489.527344 206.679688 489.527344 214.761719 L 489.527344 276.421875 L 461.527344 276.421875 L 461.527344 168.679688 L 489.527344 168.679688 L 489.527344 184.839844 C 491.519531 178.882812 494.917969 174.269531 499.730469 170.996094 C 504.535156 167.726562 510.34375 166.089844 517.144531 166.089844 C 527.339844 166.089844 535.03125 169.472656 540.226562 176.242188 C 545.425781 183.007812 548.027344 193.089844 548.027344 206.492188 Z M 548.027344 206.492188 " fill-opacity="1" fill-rule="nonzero"/><path fill="#6b7280" d="M 571.714844 238.804688 L 571.714844 168.679688 L 599.902344 168.679688 L 599.902344 234.484375 C 599.902344 242.246094 600.992188 247.792969 603.171875 251.125 C 605.347656 254.460938 608.972656 256.125 614.039062 256.125 C 619.113281 256.125 623.074219 253.882812 625.925781 249.390625 C 628.78125 244.902344 630.210938 238.617188 630.210938 230.535156 L 630.210938 168.679688 L 658.402344 168.679688 L 658.402344 276.421875 L 630.210938 276.421875 L 630.210938 260.445312 C 628.222656 266.414062 624.835938 271.03125 620.058594 274.300781 C 615.28125 277.570312 609.519531 279.207031 602.785156 279.207031 C 592.523438 279.207031 584.777344 275.8125 579.550781 269.019531 C 574.328125 262.222656 571.714844 252.148438 571.714844 238.804688 Z M 571.714844 238.804688 " fill-opacity="1" fill-rule="nonzero"/><path fill="#6b7280" d="M 778.390625 198.414062 C 775.3125 195.585938 771.707031 193.46875 767.570312 192.066406 C 763.429688 190.652344 758.894531 189.945312 753.960938 189.945312 C 747.992188 189.945312 742.78125 190.988281 738.328125 193.074219 C 733.867188 195.15625 730.414062 198.1875 727.972656 202.160156 C 726.433594 204.597656 725.363281 207.546875 724.753906 211.015625 C 724.144531 214.472656 723.839844 219.734375 723.839844 226.789062 L 723.839844 276.421875 L 695.652344 276.421875 L 695.652344 168.679688 L 723.839844 168.679688 L 723.839844 185.425781 C 726.59375 179.265625 730.824219 174.503906 736.535156 171.136719 C 742.25 167.773438 748.917969 166.089844 756.550781 166.089844 C 760.394531 166.089844 764.164062 166.554688 767.851562 167.484375 C 771.542969 168.414062 775.054688 169.777344 778.390625 171.570312 Z M 778.390625 198.414062 " fill-opacity="1" fill-rule="nonzero"/><path fill="#6b7280" d="M 855.09375 183.972656 L 855.09375 126.742188 L 883.191406 126.742188 L 883.191406 276.421875 L 855.09375 276.421875 L 855.09375 260.445312 C 852.078125 266.671875 848.179688 271.355469 843.394531 274.5 C 838.617188 277.640625 832.992188 279.207031 826.519531 279.207031 C 814.199219 279.207031 804.636719 274.273438 797.839844 264.394531 C 791.039062 254.519531 787.640625 240.601562 787.640625 222.644531 C 787.640625 204.4375 791.085938 190.460938 797.980469 180.71875 C 804.882812 170.96875 814.714844 166.089844 827.480469 166.089844 C 833.25 166.089844 838.425781 167.582031 843.007812 170.5625 C 847.601562 173.546875 851.628906 178.019531 855.09375 183.972656 Z M 815.839844 222.84375 C 815.839844 233.234375 817.566406 241.382812 821.027344 247.285156 C 824.496094 253.179688 829.273438 256.125 835.363281 256.125 C 841.457031 256.125 846.269531 253.179688 849.800781 247.285156 C 853.332031 241.382812 855.09375 233.234375 855.09375 222.84375 C 855.09375 212.453125 853.332031 204.308594 849.800781 198.414062 C 846.269531 192.511719 841.457031 189.558594 835.363281 189.558594 C 829.273438 189.558594 824.496094 192.511719 821.027344 198.414062 C 817.566406 204.308594 815.839844 212.453125 815.839844 222.84375 Z M 815.839844 222.84375 " fill-opacity="1" fill-rule="nonzero"/><path fill="#6b7280" d="M 908.214844 168.679688 L 994.328125 168.679688 L 994.328125 190.707031 L 937.65625 255.351562 L 994.328125 255.351562 L 994.328125 276.421875 L 905.90625 276.421875 L 905.90625 254.390625 L 962.671875 189.746094 L 908.214844 189.746094 Z M 908.214844 168.679688 " fill-opacity="1" fill-rule="nonzero"/><g clip-path="url(#77fb24b565)"><path fill="#22c55e" d="M 1001.65625 304.609375 L 1120.289062 304.609375 L 1120.289062 322.878906 L 1001.65625 322.878906 Z M 1001.65625 304.609375 " fill-opacity="1" fill-rule="nonzero"/></g><path fill="#ffffff" d="M 358.582031 68.828125 C 363 68.828125 366.226562 69.78125 368.257812 71.6875 C 370.292969 73.582031 371.3125 76.199219 371.3125 79.53125 C 371.3125 81.03125 371.085938 82.464844 370.632812 83.832031 C 370.179688 85.199219 369.441406 86.414062 368.410156 87.484375 C 367.382812 88.546875 366.023438 89.386719 364.320312 90.003906 C 362.617188 90.621094 360.519531 90.925781 358.019531 90.925781 L 354.894531 90.925781 L 354.894531 103.117188 L 347.621094 103.117188 L 347.621094 68.828125 Z M 358.207031 74.789062 L 354.894531 74.789062 L 354.894531 84.964844 L 357.285156 84.964844 C 358.648438 84.964844 359.832031 84.789062 360.832031 84.429688 C 361.832031 84.070312 362.601562 83.507812 363.152344 82.742188 C 363.695312 81.976562 363.96875 80.992188 363.96875 79.789062 C 363.96875 78.097656 363.503906 76.839844 362.566406 76.019531 C 361.628906 75.199219 360.175781 74.789062 358.207031 74.789062 Z M 358.207031 74.789062 " fill-opacity="1" fill-rule="nonzero"/><path fill="#ffffff" d="M 402.222656 89.96875 C 402.222656 92.15625 401.929688 94.089844 401.34375 95.777344 C 400.757812 97.460938 399.902344 98.890625 398.777344 100.0625 C 397.660156 101.226562 396.320312 102.105469 394.75 102.699219 C 393.179688 103.289062 391.410156 103.585938 389.445312 103.585938 C 387.59375 103.585938 385.898438 103.289062 384.363281 102.699219 C 382.820312 102.105469 381.484375 101.226562 380.34375 100.0625 C 379.210938 98.890625 378.335938 97.460938 377.722656 95.777344 C 377.105469 94.089844 376.796875 92.15625 376.796875 89.96875 C 376.796875 87.058594 377.3125 84.59375 378.34375 82.578125 C 379.378906 80.5625 380.851562 79.035156 382.757812 77.988281 C 384.660156 76.933594 386.9375 76.40625 389.585938 76.40625 C 392.035156 76.40625 394.210938 76.933594 396.109375 77.988281 C 398.011719 79.035156 399.507812 80.5625 400.59375 82.578125 C 401.675781 84.59375 402.222656 87.058594 402.222656 89.96875 Z M 384.09375 89.96875 C 384.09375 91.6875 384.28125 93.128906 384.65625 94.300781 C 385.027344 95.472656 385.613281 96.355469 386.410156 96.945312 C 387.207031 97.542969 388.25 97.835938 389.539062 97.835938 C 390.804688 97.835938 391.828125 97.542969 392.617188 96.945312 C 393.40625 96.355469 393.980469 95.472656 394.351562 94.300781 C 394.71875 93.128906 394.902344 91.6875 394.902344 89.96875 C 394.902344 88.226562 394.71875 86.78125 394.351562 85.632812 C 393.980469 84.488281 393.402344 83.625 392.605469 83.046875 C 391.808594 82.46875 390.769531 82.179688 389.492188 82.179688 C 387.59375 82.179688 386.21875 82.828125 385.367188 84.125 C 384.515625 85.421875 384.09375 87.367188 384.09375 89.96875 Z M 384.09375 89.96875 " fill-opacity="1" fill-rule="nonzero"/><path fill="#ffffff" d="M 430.855469 103.117188 L 428.832031 93.949219 C 428.71875 93.40625 428.539062 92.597656 428.292969 91.523438 C 428.039062 90.457031 427.769531 89.308594 427.484375 88.082031 C 427.195312 86.847656 426.925781 85.710938 426.6875 84.660156 C 426.445312 83.617188 426.269531 82.851562 426.160156 82.367188 L 425.949219 82.367188 C 425.839844 82.851562 425.667969 83.617188 425.433594 84.660156 C 425.199219 85.710938 424.9375 86.851562 424.648438 88.09375 C 424.359375 89.328125 424.089844 90.488281 423.84375 91.570312 C 423.589844 92.65625 423.402344 93.480469 423.28125 94.042969 L 421.171875 103.117188 L 413.476562 103.117188 L 406.015625 76.898438 L 413.148438 76.898438 L 416.171875 88.503906 C 416.371094 89.324219 416.570312 90.292969 416.757812 91.40625 C 416.945312 92.527344 417.109375 93.605469 417.261719 94.640625 C 417.40625 95.679688 417.519531 96.503906 417.601562 97.109375 L 417.789062 97.109375 C 417.816406 96.660156 417.882812 96.058594 417.984375 95.308594 C 418.085938 94.558594 418.203125 93.78125 418.335938 92.976562 C 418.46875 92.175781 418.59375 91.449219 418.710938 90.796875 C 418.828125 90.152344 418.917969 89.710938 418.980469 89.476562 L 422.226562 76.898438 L 430.105469 76.898438 L 433.175781 89.476562 C 433.285156 89.929688 433.425781 90.648438 433.609375 91.628906 C 433.789062 92.613281 433.949219 93.628906 434.089844 94.664062 C 434.230469 95.703125 434.304688 96.519531 434.324219 97.109375 L 434.511719 97.109375 C 434.570312 96.582031 434.679688 95.792969 434.839844 94.746094 C 434.992188 93.699219 435.179688 92.601562 435.390625 91.453125 C 435.601562 90.308594 435.8125 89.324219 436.03125 88.503906 L 439.183594 76.898438 L 446.1875 76.898438 L 438.632812 103.117188 Z M 430.855469 103.117188 " fill-opacity="1" fill-rule="nonzero"/><path fill="#ffffff" d="M 462.386719 76.40625 C 464.804688 76.40625 466.890625 76.875 468.640625 77.8125 C 470.390625 78.742188 471.738281 80.089844 472.695312 81.851562 C 473.652344 83.617188 474.132812 85.773438 474.132812 88.316406 L 474.132812 91.792969 L 457.222656 91.792969 C 457.300781 93.808594 457.90625 95.390625 459.039062 96.539062 C 460.167969 97.683594 461.746094 98.257812 463.769531 98.257812 C 465.4375 98.257812 466.96875 98.089844 468.359375 97.742188 C 469.75 97.402344 471.183594 96.886719 472.660156 96.199219 L 472.660156 101.738281 C 471.351562 102.378906 469.996094 102.847656 468.582031 103.140625 C 467.167969 103.4375 465.457031 103.585938 463.441406 103.585938 C 460.808594 103.585938 458.480469 103.105469 456.460938 102.136719 C 454.4375 101.167969 452.847656 99.695312 451.695312 97.707031 C 450.546875 95.71875 449.972656 93.21875 449.972656 90.203125 C 449.972656 87.132812 450.492188 84.582031 451.53125 82.542969 C 452.578125 80.503906 454.027344 78.976562 455.886719 77.953125 C 457.746094 76.921875 459.910156 76.40625 462.386719 76.40625 Z M 462.433594 81.5 C 461.035156 81.5 459.882812 81.945312 458.96875 82.835938 C 458.054688 83.726562 457.527344 85.125 457.386719 87.027344 L 467.421875 87.027344 C 467.40625 85.96875 467.214844 85.023438 466.851562 84.195312 C 466.480469 83.367188 465.9375 82.710938 465.210938 82.226562 C 464.484375 81.742188 463.558594 81.5 462.433594 81.5 Z M 462.433594 81.5 " fill-opacity="1" fill-rule="nonzero"/><path fill="#ffffff" d="M 495.753906 76.40625 C 496.113281 76.40625 496.53125 76.425781 497.007812 76.464844 C 497.480469 76.503906 497.867188 76.554688 498.167969 76.617188 L 497.628906 83.328125 C 497.394531 83.25 497.058594 83.191406 496.632812 83.152344 C 496.203125 83.113281 495.832031 83.09375 495.519531 83.09375 C 494.597656 83.09375 493.699219 83.210938 492.828125 83.445312 C 491.960938 83.679688 491.179688 84.058594 490.496094 84.582031 C 489.808594 85.105469 489.265625 85.792969 488.867188 86.640625 C 488.46875 87.492188 488.269531 88.539062 488.269531 89.78125 L 488.269531 103.117188 L 481.117188 103.117188 L 481.117188 76.898438 L 486.539062 76.898438 L 487.59375 81.3125 L 487.941406 81.3125 C 488.457031 80.421875 489.101562 79.609375 489.875 78.863281 C 490.648438 78.117188 491.53125 77.519531 492.523438 77.074219 C 493.519531 76.628906 494.597656 76.40625 495.753906 76.40625 Z M 495.753906 76.40625 " fill-opacity="1" fill-rule="nonzero"/><path fill="#ffffff" d="M 514.925781 76.40625 C 517.34375 76.40625 519.429688 76.875 521.179688 77.8125 C 522.925781 78.742188 524.277344 80.089844 525.230469 81.851562 C 526.191406 83.617188 526.671875 85.773438 526.671875 88.316406 L 526.671875 91.792969 L 509.761719 91.792969 C 509.835938 93.808594 510.441406 95.390625 511.574219 96.539062 C 512.707031 97.683594 514.285156 98.257812 516.308594 98.257812 C 517.976562 98.257812 519.507812 98.089844 520.898438 97.742188 C 522.285156 97.402344 523.71875 96.886719 525.195312 96.199219 L 525.195312 101.738281 C 523.890625 102.378906 522.53125 102.847656 521.121094 103.140625 C 519.707031 103.4375 517.992188 103.585938 515.980469 103.585938 C 513.347656 103.585938 511.019531 103.105469 509 102.136719 C 506.976562 101.167969 505.386719 99.695312 504.234375 97.707031 C 503.085938 95.71875 502.511719 93.21875 502.511719 90.203125 C 502.511719 87.132812 503.03125 84.582031 504.070312 82.542969 C 505.113281 80.503906 506.566406 78.976562 508.425781 77.953125 C 510.28125 76.921875 512.449219 76.40625 514.925781 76.40625 Z M 514.972656 81.5 C 513.574219 81.5 512.417969 81.945312 511.507812 82.835938 C 510.59375 83.726562 510.066406 85.125 509.925781 87.027344 L 519.960938 87.027344 C 519.945312 85.96875 519.753906 85.023438 519.386719 84.195312 C 519.019531 83.367188 518.472656 82.710938 517.746094 82.226562 C 517.023438 81.742188 516.097656 81.5 514.972656 81.5 Z M 514.972656 81.5 " fill-opacity="1" fill-rule="nonzero"/><path fill="#ffffff" d="M 541.957031 103.585938 C 539.035156 103.585938 536.652344 102.445312 534.8125 100.15625 C 532.976562 97.859375 532.058594 94.496094 532.058594 90.0625 C 532.058594 85.574219 532.988281 82.175781 534.847656 79.871094 C 536.710938 77.5625 539.144531 76.40625 542.144531 76.40625 C 543.390625 76.40625 544.492188 76.578125 545.445312 76.921875 C 546.40625 77.265625 547.230469 77.730469 547.929688 78.316406 C 548.621094 78.894531 549.210938 79.542969 549.699219 80.257812 L 549.933594 80.257812 C 549.839844 79.761719 549.722656 79.023438 549.59375 78.046875 C 549.457031 77.0625 549.394531 76.054688 549.394531 75.023438 L 549.394531 66.625 L 556.570312 66.625 L 556.570312 103.117188 L 551.078125 103.117188 L 549.699219 99.722656 L 549.394531 99.722656 C 548.9375 100.441406 548.375 101.09375 547.695312 101.679688 C 547.015625 102.265625 546.203125 102.730469 545.257812 103.070312 C 544.320312 103.414062 543.222656 103.585938 541.957031 103.585938 Z M 544.472656 97.882812 C 546.425781 97.882812 547.804688 97.304688 548.609375 96.140625 C 549.410156 94.976562 549.839844 93.222656 549.886719 90.878906 L 549.886719 90.109375 C 549.886719 87.554688 549.492188 85.605469 548.714844 84.253906 C 547.933594 82.902344 546.480469 82.226562 544.355469 82.226562 C 542.769531 82.226562 541.535156 82.90625 540.644531 84.265625 C 539.753906 85.621094 539.308594 87.585938 539.308594 90.15625 C 539.308594 92.714844 539.757812 94.644531 540.65625 95.941406 C 541.550781 97.238281 542.824219 97.882812 544.472656 97.882812 Z M 544.472656 97.882812 " fill-opacity="1" fill-rule="nonzero"/><path fill="#ffffff" d="M 579.441406 68.828125 L 590.125 68.828125 C 594.683594 68.828125 598.132812 69.472656 600.476562 70.761719 C 602.824219 72.042969 604 74.292969 604 77.507812 C 604 78.8125 603.792969 79.988281 603.382812 81.03125 C 602.964844 82.078125 602.367188 82.9375 601.589844 83.609375 C 600.808594 84.28125 599.851562 84.71875 598.71875 84.917969 L 598.71875 85.152344 C 599.867188 85.386719 600.902344 85.792969 601.824219 86.359375 C 602.742188 86.929688 603.480469 87.761719 604.035156 88.855469 C 604.589844 89.941406 604.867188 91.382812 604.867188 93.175781 C 604.867188 95.253906 604.359375 97.039062 603.347656 98.527344 C 602.328125 100.011719 600.878906 101.148438 598.988281 101.9375 C 597.105469 102.726562 594.871094 103.117188 592.277344 103.117188 L 579.441406 103.117188 Z M 586.714844 82.414062 L 590.945312 82.414062 C 593.050781 82.414062 594.507812 82.082031 595.324219 81.417969 C 596.132812 80.757812 596.542969 79.773438 596.542969 78.46875 C 596.542969 77.15625 596.0625 76.214844 595.101562 75.644531 C 594.140625 75.078125 592.621094 74.789062 590.546875 74.789062 L 586.714844 74.789062 Z M 586.714844 88.175781 L 586.714844 97.109375 L 591.457031 97.109375 C 593.644531 97.109375 595.164062 96.691406 596.027344 95.847656 C 596.882812 95.003906 597.316406 93.871094 597.316406 92.449219 C 597.316406 91.605469 597.128906 90.867188 596.753906 90.226562 C 596.378906 89.585938 595.75 89.085938 594.867188 88.726562 C 593.984375 88.359375 592.769531 88.175781 591.226562 88.175781 Z M 586.714844 88.175781 " fill-opacity="1" fill-rule="nonzero"/><path fill="#ffffff" d="M 608.570312 76.898438 L 616.40625 76.898438 L 621.347656 91.652344 C 621.503906 92.121094 621.636719 92.597656 621.746094 93.082031 C 621.855469 93.570312 621.949219 94.066406 622.027344 94.582031 C 622.105469 95.097656 622.167969 95.636719 622.214844 96.199219 L 622.355469 96.199219 C 622.449219 95.355469 622.578125 94.566406 622.742188 93.832031 C 622.910156 93.101562 623.121094 92.375 623.375 91.652344 L 628.222656 76.898438 L 635.894531 76.898438 L 624.804688 106.46875 C 624.128906 108.285156 623.25 109.800781 622.167969 111.011719 C 621.089844 112.222656 619.851562 113.132812 618.457031 113.742188 C 617.054688 114.351562 615.523438 114.65625 613.851562 114.65625 C 613.035156 114.65625 612.324219 114.609375 611.734375 114.527344 C 611.140625 114.4375 610.632812 114.351562 610.210938 114.257812 L 610.210938 108.589844 C 610.539062 108.664062 610.953125 108.734375 611.453125 108.796875 C 611.949219 108.859375 612.472656 108.890625 613.023438 108.890625 C 614.027344 108.890625 614.890625 108.675781 615.609375 108.25 C 616.328125 107.828125 616.925781 107.257812 617.414062 106.550781 C 617.894531 105.839844 618.28125 105.0625 618.5625 104.21875 L 618.984375 102.929688 Z M 608.570312 76.898438 " fill-opacity="1" fill-rule="nonzero"/></svg>